<svg xmlns="http://www.w3.org/2000/svg" viewBox="0 0 583.851 583.851"><path d="M579.871 249.696c-2.653-2.856-6.021-4.488-10.101-4.896l-74.053-7.344c-4.896-17.544-12.036-34.476-21.42-50.796l47.124-57.528c2.857-3.264 4.182-6.834 3.979-10.71-.202-3.876-1.733-7.242-4.591-10.098l-45.288-45.288c-2.854-2.856-6.526-4.284-11.016-4.284-3.672 0-6.937 1.224-9.792 3.672l-57.528 47.124c-16.317-9.384-33.252-16.524-50.796-21.42l-7.344-74.052c-.408-4.08-2.04-7.446-4.896-10.098C331.295 1.326 327.827 0 323.747 0H260.1c-4.08 0-7.548 1.326-10.404 3.978s-4.488 6.018-4.896 10.098l-7.344 74.052c-17.544 4.896-34.476 12.036-50.796 21.42l-57.528-47.124c-3.264-2.448-6.528-3.672-9.792-3.672-4.488 0-8.16 1.428-11.016 4.284l-45.288 45.288c-2.856 2.856-4.386 6.222-4.59 10.098s1.122 7.446 3.978 10.71l47.124 57.529c-9.384 16.32-16.524 33.252-21.42 50.796l-74.052 7.344c-4.08.408-7.446 2.04-10.098 4.896C1.326 252.553 0 256.021 0 260.101v63.648c0 4.08 1.326 7.548 3.978 10.402 2.652 2.855 6.018 4.487 10.098 4.896l74.052 7.344c4.896 17.544 12.036 34.479 21.42 50.796l-47.124 57.528c-2.856 3.264-4.182 6.834-3.978 10.71s1.734 7.243 4.59 10.098l45.288 45.288c2.856 2.856 6.528 4.284 11.016 4.284 3.264 0 6.528-1.224 9.792-3.672l57.529-47.124c16.32 9.384 33.252 16.524 50.796 21.42l7.344 74.052c.408 4.08 2.04 7.447 4.896 10.101 2.856 2.65 6.324 3.978 10.404 3.978h63.648c4.08 0 7.548-1.327 10.403-3.978 2.854-2.653 4.486-6.021 4.896-10.101l7.344-74.052c17.544-4.896 34.479-12.036 50.796-21.42l57.528 47.124c2.856 2.448 6.12 3.672 9.792 3.672 4.489 0 8.161-1.428 11.016-4.284l45.288-45.289c2.857-2.854 4.389-6.222 4.591-10.098.203-3.876-1.121-7.446-3.979-10.71L474.3 397.187c9.384-16.317 16.524-33.252 21.42-50.796l74.052-7.344c4.08-.408 7.447-2.04 10.101-4.896 2.65-2.854 3.978-6.321 3.978-10.401v-63.648c-.002-4.082-1.33-7.55-3.98-10.406zm-208.389 75.889c-4.485 10.605-10.605 19.788-18.357 27.54s-16.935 13.872-27.54 18.357c-10.608 4.488-21.828 6.732-33.66 6.732s-23.052-2.244-33.66-6.732c-10.608-4.485-19.788-10.605-27.54-18.357s-13.872-16.935-18.36-27.54c-4.488-10.608-6.732-21.828-6.732-33.66s2.244-23.052 6.732-33.66c4.488-10.608 10.608-19.788 18.36-27.54s16.932-13.872 27.54-18.36c10.608-4.488 21.828-6.732 33.66-6.732s23.052 2.244 33.66 6.732c10.605 4.488 19.788 10.608 27.54 18.36s13.872 16.932 18.357 27.54c4.488 10.608 6.732 21.828 6.732 33.66s-2.243 23.052-6.732 33.66z" fill="#010002"/></svg>