<svg xmlns="http://www.w3.org/2000/svg" viewBox="0 0 468.138 468.138"><path d="M234.068 468.138c-62.522 0-121.302-24.348-165.511-68.558C24.347 355.37 0 296.591 0 234.068s24.347-121.3 68.557-165.51S171.546.001 234.068.001 355.37 24.348 399.58 68.558c44.21 44.209 68.558 102.989 68.558 165.511S443.79 355.37 399.58 399.581c-44.21 44.209-102.99 68.557-165.512 68.557zm0-448.137c-57.18 0-110.937 22.267-151.369 62.699S20 176.89 20 234.068c0 57.18 22.267 110.937 62.699 151.37 40.432 40.432 94.189 62.699 151.369 62.699s110.937-22.268 151.37-62.699c40.432-40.433 62.699-94.189 62.699-151.37 0-57.18-22.268-110.937-62.699-151.369-40.433-40.431-94.189-62.698-151.37-62.698z"/><path d="M206.743 184.883h43.721v174.883h-43.721zm0-65.58h43.721v43.721h-43.721z"/></svg>