<svg xmlns="http://www.w3.org/2000/svg" width="453.053" height="453.053" viewBox="0 0 453.053 453.053"><path d="M284.368 13.423c38.313-24 93.844-15.5 132.313 22.953 38.438 38.453 46.938 94 22.969 132.328-37.844-6.734-73.656-24.625-102.188-53.125-28.5-28.515-46.375-64.311-53.094-102.156zm30.469 124.783c-27.938-27.953-46.781-62.031-56.906-98.359-23.969 38.328-15.469 93.844 22.97 132.297 38.469 38.453 93.969 46.953 132.313 23-36.346-10.158-70.408-28.986-98.377-56.938zm-56.563 56.562c-14.97-14.969-26-32.125-33.642-50.109L9.383 398.408c-12.516 12.531-12.5 32.781 0 45.281 12.484 12.469 32.75 12.5 45.25 0L308.4 228.439c-18.001-7.641-35.157-18.703-50.126-33.671z"/></svg>